<?xml version="1.0" encoding="UTF-8"?>
<svg width="87px" height="87px" viewBox="0 0 87 87" version="1.1" xmlns="http://www.w3.org/2000/svg" xmlns:xlink="http://www.w3.org/1999/xlink">
    <g stroke="none" stroke-width="1" fill="none" fill-rule="evenodd">
        <g transform="translate(1.000000, 1.000000)">
            <circle stroke="#154c79" cx="42.5" cy="42.5" r="42.5"></circle>
             <g fill="#154c79" fill-rule="nonzero" transform="translate(33, 29)">
                <path d="M 0 28.79 L 3.256 24.271 A 6.412 6.412 0 0 0 5.547 26.524 A 7.807 7.807 0 0 0 5.979 26.762 Q 6.851 27.207 7.749 27.438 A 7.429 7.429 0 0 0 9.609 27.669 A 7.365 7.365 0 0 0 10.701 27.592 A 5.477 5.477 0 0 0 11.726 27.34 A 5.049 5.049 0 0 0 13.381 26.37 Q 14.947 24.947 14.947 22.242 A 7.062 7.062 0 0 0 14.534 19.896 A 8.512 8.512 0 0 0 14.27 19.235 A 9.966 9.966 0 0 0 13.128 17.373 A 11.968 11.968 0 0 0 12.544 16.673 Q 11.746 15.807 10.332 14.552 A 62.298 62.298 0 0 0 10.196 14.431 A 1415.124 1415.124 0 0 1 9.5 13.826 A 1676.211 1676.211 0 0 1 8.763 13.185 A 58.73 58.73 0 0 1 7.604 12.148 A 66.98 66.98 0 0 1 7.206 11.779 A 27.434 27.434 0 0 1 6.507 11.101 Q 6.192 10.785 5.922 10.489 A 16.062 16.062 0 0 1 5.747 10.294 Q 5.142 9.609 4.769 9.004 A 6.405 6.405 0 0 1 4.172 7.841 A 5.642 5.642 0 0 1 4.012 7.367 Q 3.772 6.53 3.772 5.676 A 7.719 7.719 0 0 1 3.864 4.459 A 5.597 5.597 0 0 1 4.217 3.185 Q 4.662 2.118 5.534 1.352 A 5.429 5.429 0 0 1 8.029 0.153 A 7.776 7.776 0 0 1 9.609 0 A 14.883 14.883 0 0 1 11.054 0.067 Q 11.783 0.138 12.413 0.285 A 8.251 8.251 0 0 1 12.758 0.374 A 9.159 9.159 0 0 1 14.069 0.853 Q 14.836 1.198 15.658 1.708 L 13.078 5.267 Q 12.601 4.954 12.281 4.739 A 51.171 51.171 0 0 1 12.1 4.618 A 27.43 27.43 0 0 0 11.955 4.521 Q 11.758 4.39 11.658 4.329 A 1.882 1.882 0 0 0 11.619 4.306 A 2.903 2.903 0 0 0 10.69 3.921 A 2.672 2.672 0 0 0 10.125 3.861 A 4.157 4.157 0 0 0 9.342 3.928 Q 8.07 4.173 7.979 5.317 A 2.288 2.288 0 0 0 7.972 5.498 Q 7.972 6.515 9.757 8.249 A 17.584 17.584 0 0 0 9.875 8.363 A 139.021 139.021 0 0 0 11.815 10.16 A 339.078 339.078 0 0 0 13.808 11.957 Q 14.659 12.755 15.289 13.455 A 14.779 14.779 0 0 1 15.294 13.461 A 30.64 30.64 0 0 1 16.338 14.684 A 27.829 27.829 0 0 1 16.477 14.858 A 14.871 14.871 0 0 1 18.523 18.39 A 10.673 10.673 0 0 1 19.301 22.166 A 12.247 12.247 0 0 1 19.306 22.509 A 9.779 9.779 0 0 1 18.723 25.946 A 8.652 8.652 0 0 1 16.441 29.306 Q 13.683 31.815 9.609 31.815 A 17.286 17.286 0 0 1 8.553 31.784 A 13.788 13.788 0 0 1 7.794 31.717 A 13.847 13.847 0 0 1 6.79 31.564 A 11.661 11.661 0 0 1 6.228 31.441 A 19.404 19.404 0 0 1 4.715 31.014 A 17.046 17.046 0 0 1 3.588 30.601 A 19.909 19.909 0 0 1 3.132 30.409 A 24.998 24.998 0 0 1 2.664 30.19 Q 2.251 29.992 1.762 29.742 A 40.469 40.469 0 0 1 1.039 29.363 Q 0.673 29.166 0.271 28.942 A 67.589 67.589 0 0 1 0 28.79 Z" id="Path"></path>
            </g>
        </g>
    </g>
</svg>
